<svg viewBox="0 0 109 125" fill="none" xmlns="http://www.w3.org/2000/svg">
    <g clip-path="url(#logo-abbott-vertical-clip-0)">
        <path d="M94.4553 0H0V14.5476H89.8352C92.4019 14.5476 94.4553 16.6013 94.4553 19.1686V67.9457C94.4553 70.5129 92.4019 72.5667 89.8352 72.5667H19.1648C16.5981 72.5667 14.5447 70.5129 14.5447 67.9457V48.2637C14.5447 45.6965 16.5981 43.6427 19.1648 43.6427H79.9105V29.0951H14.5447C6.50235 29.0951 0 35.5988 0 43.4716V72.5667C0 80.6107 6.50235 87.1143 14.5447 87.1143H94.6264C102.669 87.1143 109.171 80.6107 109.171 72.5667V14.3764C109 6.50362 102.498 0 94.4553 0Z" fill="#009AD9"/>
        <path d="M9.58307 113.985H14.3743L11.9787 106.796L9.58307 113.985ZM16.5988 101.833L22.0744 118.434C22.7589 120.488 23.2722 121.002 24.2989 121.002H25.6678V123.911H13.5187V121.002H14.5454C15.5721 121.002 16.4277 120.83 16.4277 120.488C16.4277 120.146 16.4277 119.804 16.2565 119.29L15.401 116.894H8.55639L8.21416 118.263C7.87193 119.461 7.70081 119.975 7.70081 120.317C7.70081 120.83 8.89862 121.002 9.75419 121.002H10.7809V123.911H1.02734V121.002H2.22515C3.42295 121.002 3.76518 120.488 4.44964 118.434L9.9253 101.833H16.5988Z" fill="black"/>
        <path d="M33.026 116.038C33.026 119.461 33.7105 121.515 35.5927 121.515C37.475 121.515 38.1594 119.461 38.1594 116.038C38.1594 112.615 37.475 110.562 35.5927 110.562C33.8816 110.733 33.026 112.786 33.026 116.038ZM27.5503 105.941C27.5503 105.085 27.3792 104.571 26.3525 104.571H24.8125V101.833H33.026V110.048C34.2238 108.679 35.7638 107.823 37.3039 107.823C42.2662 107.823 44.1484 111.76 44.1484 116.038C44.1484 120.488 42.2662 124.253 37.3039 124.253C35.2505 124.253 33.3682 123.569 32.1704 121.686L31.1437 123.74H27.3792V105.941H27.5503Z" fill="black"/>
        <path d="M51.6764 116.038C51.6764 119.461 52.3609 121.515 54.2431 121.515C56.1254 121.515 56.8098 119.461 56.8098 116.038C56.8098 112.615 56.1254 110.562 54.2431 110.562C52.532 110.733 51.6764 112.786 51.6764 116.038ZM46.2007 105.941C46.2007 105.085 46.0296 104.571 45.0029 104.571H43.4629V101.833H51.6764V110.048C52.8742 108.679 54.4142 107.823 55.9543 107.823C60.9166 107.823 62.7988 111.76 62.7988 116.038C62.7988 120.488 60.9166 124.253 55.9543 124.253C53.9009 124.253 52.0186 123.569 50.8208 121.686L49.7941 123.74H46.2007V105.941Z" fill="black"/>
        <path d="M70.3277 116.038C70.3277 119.975 71.0121 121.686 73.0655 121.686C75.1189 121.686 75.8033 119.975 75.8033 116.038C75.8033 112.102 75.1189 110.39 73.0655 110.39C71.0121 110.39 70.3277 112.102 70.3277 116.038ZM81.6212 116.038C81.6212 121.344 78.0278 124.253 73.0655 124.253C68.1032 124.253 64.5098 121.344 64.5098 116.038C64.5098 110.733 68.1032 107.823 73.0655 107.823C77.8567 107.823 81.6212 110.733 81.6212 116.038Z" fill="black"/>
        <path d="M105.236 116.381V118.948C105.236 120.489 104.894 121.344 103.696 121.344C103.012 121.344 102.499 120.831 102.499 120.146V111.075H106.605V108.337H102.499V102.176H99.2474C98.9052 104.914 98.0496 108.337 94.7984 108.337H89.665V102.176H86.4138C86.0716 104.914 85.216 108.337 81.9648 108.337V111.075H84.1893V119.462C84.1893 122.885 86.0716 124.425 89.4939 124.425C93.4295 124.425 95.1407 122.714 95.1407 119.462V116.381H92.4028V118.948C92.4028 120.489 92.0606 121.344 90.8628 121.344C90.1783 121.344 89.665 120.831 89.665 120.146V111.075H97.0229V119.462C97.0229 122.885 98.9052 124.425 102.327 124.425C106.263 124.425 107.974 122.714 107.974 119.462V116.381H105.236Z" fill="black"/>
    </g>
    <defs>
        <clipPath id="logo-abbott-vertical-clip-0">
            <rect width="109" height="124.425" fill="white"/>
        </clipPath>
    </defs>
</svg>