<svg viewBox="0 0 145 145" fill="none" xmlns="http://www.w3.org/2000/svg">
                        <mask id="cards-3-mask-0" maskUnits="userSpaceOnUse" x="16" y="17" width="57" height="88">
                            <mask id="cards-3-path-1-inside-1" fill="white">
                                <path d="M58.7409 17.6285C49.8183 19.8597 41.5776 24.2269 34.735 30.3507C27.8924 36.4746 22.6548 44.1698 19.4772 52.7678C16.2997 61.3658 15.2784 70.6064 16.502 79.6869C17.7256 88.7673 21.1572 97.4129 26.4985 104.872L72.5 72.2028L58.7409 17.6285Z"/>
                            </mask>
                            <path d="M58.7409 17.6285C49.8183 19.8597 41.5776 24.2269 34.735 30.3507C27.8924 36.4746 22.6548 44.1698 19.4772 52.7678C16.2997 61.3658 15.2784 70.6064 16.502 79.6869C17.7256 88.7673 21.1572 97.4129 26.4985 104.872L72.5 72.2028L58.7409 17.6285Z" fill="white" stroke="white" stroke-width="4" mask="url(#cards-3-path-1-inside-1)"/>
                        </mask>
                        <g mask="url(#cards-3-mask-0)">
                            <path d="M128.7 66.3722C128.866 67.9711 128.964 69.5899 128.992 71.2257L127.992 71.2428C127.997 71.5621 128 71.8821 128 72.2028C128 72.5234 127.997 72.8434 127.992 73.1627L128.992 73.1798C128.964 74.8156 128.866 76.4344 128.7 78.0333L127.706 77.9305C127.64 78.5673 127.563 79.2008 127.476 79.8309L128.466 79.9682C128.242 81.5864 127.949 83.1826 127.589 84.7538L126.614 84.5308C126.472 85.1531 126.319 85.7714 126.156 86.3854L127.122 86.6424C126.703 88.2181 126.218 89.7667 125.668 91.2851L124.728 90.9448C124.51 91.5452 124.283 92.1409 124.046 92.7315L124.973 93.1045C124.366 94.6148 123.695 96.0928 122.964 97.5351L122.072 97.0828C121.784 97.6516 121.485 98.2148 121.178 98.7722L122.054 99.2552C121.268 100.679 120.423 102.065 119.521 103.41L118.691 102.853C118.336 103.383 117.971 103.906 117.599 104.423L118.409 105.008C117.459 106.324 116.453 107.599 115.395 108.827L114.637 108.174C114.221 108.657 113.797 109.133 113.364 109.601L114.099 110.279C112.999 111.471 111.847 112.616 110.648 113.709L109.974 112.97C109.503 113.4 109.025 113.821 108.54 114.234L109.188 114.996C107.954 116.046 106.674 117.045 105.351 117.988L104.77 117.173C104.252 117.543 103.726 117.904 103.194 118.257L103.746 119.09C102.397 119.984 101.006 120.822 99.578 121.6L99.0995 120.722C98.5406 121.026 97.9759 121.322 97.4056 121.607L97.8534 122.501C96.4079 123.225 94.9268 123.89 93.4136 124.49L93.0446 123.561C92.4529 123.796 91.8563 124.021 91.2548 124.236L91.5914 125.178C90.0712 125.721 88.5208 126.201 86.9433 126.616L86.6894 125.648C86.0748 125.81 85.456 125.961 84.8332 126.102L85.0536 127.077C83.4817 127.432 81.8848 127.722 80.2661 127.944L80.1305 126.953C79.5 127.039 78.8662 127.115 78.2291 127.18L78.3307 128.175C76.7316 128.338 75.1128 128.435 73.477 128.463L73.4602 127.463C73.1408 127.468 72.8207 127.471 72.5 127.471C72.1793 127.471 71.8592 127.468 71.5398 127.463L71.523 128.463C69.8872 128.435 68.2684 128.338 66.6693 128.175L66.7709 127.18C66.1338 127.115 65.5 127.039 64.8695 126.953L64.7339 127.944C63.1152 127.722 61.5183 127.432 59.9464 127.077L60.1668 126.102C59.544 125.961 58.9252 125.81 58.3106 125.648L58.0567 126.616C56.4792 126.201 54.9288 125.721 53.4086 125.178L53.7452 124.236C53.1437 124.021 52.5471 123.796 51.9554 123.561L51.5864 124.49C50.0731 123.89 48.5921 123.225 47.1466 122.501L47.5944 121.607C47.0241 121.322 46.4593 121.026 45.9004 120.722L45.422 121.6C43.9939 120.822 42.6033 119.984 41.2535 119.09L41.8057 118.257C41.2738 117.904 40.7483 117.543 40.2295 117.173L39.649 117.988C38.3264 117.045 37.0463 116.046 35.8122 114.996L36.4604 114.234C35.9748 113.821 35.4965 113.4 35.0257 112.97L34.3518 113.709C33.1528 112.616 32.0013 111.471 30.9008 110.279L31.6355 109.601C31.2031 109.133 30.7788 108.657 30.3626 108.174L29.605 108.827C28.5468 107.599 27.5409 106.324 26.5906 105.008L27.4015 104.423C27.0286 103.906 26.6644 103.383 26.3092 102.853L25.4786 103.41C24.5767 102.065 23.7315 100.679 22.9463 99.2552L23.8219 98.7722C23.5145 98.2148 23.2164 97.6516 22.928 97.0828L22.0361 97.5351C21.3046 96.0928 20.6337 94.6148 20.0266 93.1045L20.9544 92.7315C20.717 92.1409 20.4895 91.5452 20.2722 90.9447L19.3319 91.2851C18.7824 89.7667 18.2965 88.2181 17.8777 86.6423L18.8441 86.3854C18.6808 85.7714 18.528 85.1531 18.3856 84.5308L17.4108 84.7538C17.0514 83.1826 16.758 81.5864 16.5337 79.9682L17.5242 79.8309C17.4369 79.2008 17.3602 78.5673 17.2944 77.9305L16.2997 78.0333C16.1344 76.4344 16.0363 74.8156 16.0083 73.1798L17.0082 73.1627C17.0027 72.8434 17 72.5234 17 72.2028C17 71.8821 17.0027 71.5621 17.0082 71.2428L16.0083 71.2257C16.0363 69.5899 16.1344 67.9711 16.2997 66.3722L17.2944 66.475C17.3602 65.8382 17.4369 65.2047 17.5242 64.5746L16.5337 64.4373C16.758 62.8191 17.0514 61.2229 17.4108 59.6517L18.3856 59.8747C18.528 59.2524 18.6808 58.6341 18.8441 58.0201L17.8777 57.7632C18.2965 56.1874 18.7824 54.6388 19.3319 53.1204L20.2722 53.4608C20.4895 52.8603 20.717 52.2646 20.9544 51.674L20.0266 51.301C20.6337 49.7907 21.3046 48.3128 22.0361 46.8704L22.928 47.3227C23.2165 46.7539 23.5145 46.1907 23.8219 45.6333L22.9463 45.1503C23.7315 43.7269 24.5767 42.3409 25.4786 40.9958L26.3092 41.5527C26.6644 41.0229 27.0286 40.4996 27.4015 39.9829L26.5906 39.3977C27.5409 38.081 28.5468 36.8069 29.605 35.5788L30.3626 36.2316C30.7788 35.7486 31.2031 35.2729 31.6355 34.8046L30.9008 34.1262C32.0013 32.9344 33.1528 31.7899 34.3518 30.6964L35.0257 31.4352C35.4965 31.0058 35.9748 30.5843 36.4604 30.1711L35.8122 29.4095C37.0463 28.3592 38.3264 27.3609 39.649 26.418L40.2295 27.2322C40.7483 26.8624 41.2738 26.5012 41.8057 26.1489L41.2535 25.3152C42.6033 24.4212 43.994 23.5836 45.422 22.8055L45.9005 23.6836C46.4593 23.3791 47.0241 23.0839 47.5944 22.7982L47.1466 21.9041C48.5921 21.18 50.0732 20.5159 51.5864 19.9151L51.9554 20.8445C52.5471 20.6096 53.1437 20.3845 53.7452 20.1695L53.4086 19.2279C54.9288 18.6844 56.4792 18.204 58.0567 17.7899L58.3106 18.7571C58.9252 18.5957 59.544 18.4446 60.1668 18.3039L59.9464 17.3284C61.5183 16.9733 63.1152 16.6834 64.7339 16.4618L64.8695 17.4525C65.5 17.3662 66.1338 17.2904 66.7709 17.2254L66.6693 16.2306C68.2684 16.0673 69.8872 15.9704 71.523 15.9428L71.5398 16.9427C71.8592 16.9373 72.1793 16.9346 72.5 16.9346C72.8207 16.9346 73.1408 16.9373 73.4602 16.9427L73.477 15.9428C75.1128 15.9704 76.7316 16.0673 78.3307 16.2306L78.2291 17.2254C78.8662 17.2904 79.5 17.3662 80.1305 17.4525L80.2661 16.4618C81.8848 16.6834 83.4817 16.9733 85.0536 17.3284L84.8332 18.3039C85.456 18.4446 86.0748 18.5957 86.6894 18.7571L86.9433 17.7899C88.5208 18.204 90.0712 18.6844 91.5914 19.2279L91.2548 20.1695C91.8563 20.3845 92.4529 20.6096 93.0446 20.8445L93.4136 19.9151C94.9268 20.5159 96.4079 21.18 97.8534 21.9041L97.4056 22.7982C97.9759 23.0839 98.5407 23.3791 99.0996 23.6836L99.578 22.8055C101.006 23.5836 102.397 24.4212 103.746 25.3152L103.194 26.1489C103.726 26.5012 104.252 26.8624 104.77 27.2322L105.351 26.418C106.674 27.3609 107.954 28.3592 109.188 29.4095L108.54 30.1711C109.025 30.5843 109.503 31.0058 109.974 31.4352L110.648 30.6964C111.847 31.79 112.999 32.9344 114.099 34.1262L113.364 34.8046C113.797 35.2729 114.221 35.7486 114.637 36.2316L115.395 35.5788C116.453 36.807 117.459 38.081 118.409 39.3977L117.599 39.9829C117.971 40.4996 118.336 41.0229 118.691 41.5527L119.521 40.9958C120.423 42.3409 121.269 43.7269 122.054 45.1503L121.178 45.6333C121.485 46.1907 121.784 46.7539 122.072 47.3227L122.964 46.8704C123.695 48.3128 124.366 49.7908 124.973 51.3011L124.046 51.674C124.283 52.2647 124.51 52.8603 124.728 53.4608L125.668 53.1205C126.218 54.6388 126.703 56.1874 127.122 57.7632L126.156 58.0201C126.319 58.6342 126.472 59.2524 126.614 59.8747L127.589 59.6517C127.949 61.2229 128.242 62.8191 128.466 64.4373L127.476 64.5746C127.563 65.2047 127.64 65.8383 127.706 66.475L128.7 66.3722Z" stroke="white" stroke-width="2" stroke-dasharray="2 5" fill="none"/>
                        </g>
                        <mask id="cards-3-mask-1" maskUnits="userSpaceOnUse" x="72" y="59" width="73" height="75">
                            <mask id="cards-3-path-3-inside-2" fill="white">
                                <path d="M110.276 133.83C122.728 126.259 132.597 115.124 138.593 101.879C144.589 88.6336 146.434 73.895 143.885 59.5894L72.5 72.2026L110.276 133.83Z"/>
                            </mask>
                            <path d="M110.276 133.83C122.728 126.259 132.597 115.124 138.593 101.879C144.589 88.6336 146.434 73.895 143.885 59.5894L72.5 72.2026L110.276 133.83Z" fill="white" stroke="white" stroke-width="4" mask="url(#cards-3-path-3-inside-2)"/>
                        </mask>
                        <g class="s-cards__spinner" mask="url(#cards-3-mask-1)">
                            <path d="M144 72.2026C144 111.523 111.992 143.405 72.5 143.405C33.0078 143.405 1 111.523 1 72.2026C1 32.8824 33.0078 1 72.5 1C111.992 1 144 32.8824 144 72.2026Z" stroke="white" stroke-width="2" fill="none"/>
                        </g>
                        <path d="M135 72.2025C135 106.573 107.022 134.442 72.5 134.442C37.9783 134.442 10 106.573 10 72.2025C10 37.8324 37.9783 9.96289 72.5 9.96289C107.022 9.96289 135 37.8324 135 72.2025Z" stroke="white" stroke-width="2" fill="none"/>
                        <path d="M47.7367 74.0106C51.6678 74.0106 55.0602 71.6671 56.5961 68.3042L64.5361 70.2028C64.4128 70.9586 64.3457 71.7324 64.3457 72.5222C64.3457 77.4727 66.8715 81.8434 70.7017 84.4165L67.9731 88.0993C66.9466 87.7303 65.8414 87.5275 64.6888 87.5275C59.3202 87.5275 54.953 91.8955 54.953 97.2642C54.953 102.633 59.3202 107 64.6888 107C70.0575 107 74.4255 102.633 74.4255 97.2642C74.4255 94.2864 73.08 91.6176 70.9679 89.8308L73.8108 85.9917C75.327 86.5402 76.9611 86.8404 78.664 86.8404C86.5584 86.8404 92.9823 80.4175 92.9823 72.5222C92.9823 69.7418 92.1826 67.1463 90.8059 64.9476L93.9838 62.0457C95.4616 62.9507 97.1975 63.4725 99.0532 63.4725C104.422 63.4725 108.789 59.1054 108.789 53.7367C108.789 48.368 104.422 44 99.0532 44C93.6836 44 89.3165 48.368 89.3165 53.7367C89.3165 56.0043 90.0983 58.0922 91.4036 59.7487L88.6437 62.2682C86.0626 59.7558 82.5415 58.2039 78.664 58.2039C72.7637 58.2039 67.6863 61.7911 65.4974 66.8997L57.4448 64.9744C57.4618 64.743 57.4725 64.5098 57.4725 64.2748C57.4725 58.9061 53.1054 54.5381 47.7367 54.5381C42.368 54.5381 38 58.9061 38 64.2748C38 69.6435 42.368 74.0106 47.7367 74.0106ZM99.0532 47.4362C102.527 47.4362 105.353 50.263 105.353 53.7367C105.353 57.2104 102.527 60.0363 99.0532 60.0363C95.5786 60.0363 92.7527 57.2104 92.7527 53.7367C92.7527 50.263 95.5786 47.4362 99.0532 47.4362ZM70.9894 97.2642C70.9894 100.738 68.1634 103.564 64.6888 103.564C61.2151 103.564 58.3892 100.738 58.3892 97.2642C58.3892 93.7905 61.2151 90.9636 64.6888 90.9636C68.1634 90.9636 70.9894 93.7905 70.9894 97.2642ZM78.664 61.6401C84.6635 61.6401 89.5452 66.5218 89.5452 72.5222C89.5452 78.5216 84.6635 83.4034 78.664 83.4034C72.6637 83.4034 67.7819 78.5216 67.7819 72.5222C67.7819 66.5218 72.6637 61.6401 78.664 61.6401ZM47.7367 57.9743C51.2104 57.9743 54.0363 60.8011 54.0363 64.2748C54.0363 67.7485 51.2104 70.5745 47.7367 70.5745C44.2621 70.5745 41.4362 67.7485 41.4362 64.2748C41.4362 60.8011 44.2621 57.9743 47.7367 57.9743Z" fill="white"/>
                        <path d="M82.6719 72.5231H86.1081C86.1081 68.4168 82.7684 65.0771 78.6631 65.0771V68.5133C80.8735 68.5133 82.6719 70.3127 82.6719 72.5231Z" fill="white"/>
                    </svg>