<svg viewBox="0 0 127 127" fill="none" xmlns="http://www.w3.org/2000/svg">
                <g class="where-buy__letters">
                    <path d="M114.06 70.9818L112.746 70.8548L113.069 67.5104L106.022 66.8289L106.155 65.4553L114.516 66.2638L114.06 70.9818Z" fill="#F5F5F5"/>
                    <path d="M104.702 79.961L104.424 80.817L101.639 79.9132L102.065 78.6006L103.595 79.097L105.169 74.246L103.64 73.7497L104.065 72.4371L106.851 73.3409L106.61 74.0828C107.068 74.7445 107.909 75.2742 109.135 75.6718L113.118 76.9646L111.436 82.1465L104.702 79.961ZM106.143 75.521L105.128 78.6484L110.63 80.4339L111.459 77.8771L108.686 76.977C107.499 76.5917 106.651 76.1064 106.143 75.521Z" fill="#F5F5F5"/>
                    <path d="M102.517 84.9663L100.637 88.1761L99.4981 87.509L102.076 83.1084L109.324 87.3542L106.776 91.703L105.637 91.0358L107.487 87.8777L105.603 86.7738L103.905 89.673L102.776 89.0119L104.474 86.1127L102.517 84.9663Z" fill="#F5F5F5"/>
                    <path d="M89.4616 98.4836L90.7133 97.4177L95.8257 98.3126L93.2348 95.2703L94.2855 94.3756L99.7317 100.771L98.681 101.666L96.238 98.7968L96.2509 103.735L94.9992 104.801L94.9316 99.4838L89.4616 98.4836Z" fill="#F5F5F5"/>
                    <path d="M86.9639 109.88L85.7328 110.529L85.1232 103.795C84.976 102.145 85.5562 101.025 86.8637 100.434L87.463 101.57C87.0232 101.748 86.7207 101.989 86.5556 102.293C86.3835 102.601 86.3241 102.994 86.3776 103.473L91.6228 107.421L90.3918 108.07L86.5208 105.107L86.9639 109.88Z" fill="#F5F5F5"/>
                    <path d="M75.2925 114.155L73.157 106.031L74.4917 105.681L76.2916 112.528L79.5992 111.659L77.7993 104.811L79.134 104.46L81.2695 112.584L75.2925 114.155Z" fill="#F5F5F5"/>
                    <path d="M64.3101 107.002L64.4201 112.7L68.2694 106.925L69.3492 106.904L69.5113 115.303L68.1316 115.329L68.0216 109.63L64.1723 115.406L63.0925 115.427L62.9304 107.028L64.3101 107.002Z" fill="#F5F5F5"/>
                    <path d="M52.0152 114.004L52.2774 112.711L54.5943 113.18L56.0004 106.241L57.3529 106.515L55.9468 113.454L58.2754 113.926L58.0133 115.22L52.0152 114.004Z" fill="#F5F5F5"/>
                    <path d="M45.9816 108.997C45.2557 108.68 44.7579 108.171 44.4883 107.468C44.2081 106.77 44.2231 106.065 44.5334 105.354C44.8469 104.635 45.3548 104.141 46.0572 103.871C46.7523 103.599 47.4628 103.621 48.1887 103.937L51.0265 105.175L47.6678 112.874L46.4029 112.323L47.5545 109.683L45.9816 108.997ZM47.6705 105.125C47.2966 104.962 46.9342 104.952 46.5835 105.096C46.2296 105.247 45.9678 105.517 45.7983 105.906C45.6288 106.294 45.6106 106.666 45.7438 107.021C45.8739 107.383 46.1258 107.646 46.4998 107.809L48.0727 108.495L49.2434 105.811L47.6705 105.125Z" fill="#F5F5F5"/>
                    <path d="M39.8628 102.616C39.6728 102.884 39.4379 103.09 39.1584 103.234C38.8788 103.379 38.5963 103.473 38.3109 103.515C38.0208 103.564 37.7377 103.604 37.4616 103.633C37.1808 103.669 36.9192 103.733 36.6767 103.826C36.4295 103.925 36.2364 104.073 36.0974 104.268C35.9027 104.542 35.849 104.818 35.9361 105.096C36.0186 105.38 36.2196 105.636 36.5391 105.863C36.8456 106.081 37.1653 106.19 37.4982 106.191C37.8312 106.193 38.1485 106.084 38.4502 105.867L39.0292 107.103C38.5176 107.436 37.9715 107.583 37.3911 107.543C36.7996 107.506 36.2462 107.304 35.7311 106.938C35.1508 106.525 34.7669 106.002 34.5794 105.368C34.3919 104.734 34.5068 104.124 34.9239 103.537C35.1186 103.263 35.3603 103.047 35.6492 102.89C35.9334 102.738 36.2206 102.638 36.5106 102.589C36.8006 102.54 37.0884 102.494 37.3738 102.452C37.6545 102.416 37.9185 102.348 38.1656 102.249C38.4128 102.15 38.6036 102.006 38.738 101.817L39.8628 102.616ZM40.2371 99.7905C40.4825 99.7491 40.7063 99.8002 40.9084 99.9438C41.1105 100.088 41.2324 100.282 41.2738 100.527C41.3153 100.773 41.2642 100.997 41.1206 101.199C40.9769 101.401 40.7856 101.525 40.5467 101.571C40.3013 101.613 40.0742 101.559 39.8656 101.411C39.6634 101.267 39.5416 101.073 39.5001 100.827C39.4586 100.582 39.5097 100.358 39.6534 100.156C39.7971 99.9538 39.9916 99.832 40.2371 99.7905Z" fill="#F5F5F5"/>
                    <path d="M14.1064 57.0772L15.4203 57.2043L15.0969 60.5487L22.144 61.2301L22.0112 62.6037L13.6502 61.7952L14.1064 57.0772Z" fill="#F5F5F5"/>
                    <path d="M23.464 48.0981L23.7418 47.242L26.5268 48.1459L26.1008 49.4585L24.5714 48.9621L22.997 53.8131L24.5265 54.3094L24.1005 55.622L21.3155 54.7182L21.5563 53.9763C21.0982 53.3145 20.2566 52.7849 19.0315 52.3873L15.048 51.0945L16.7298 45.9126L23.464 48.0981ZM22.023 52.5381L23.038 49.4107L17.5365 47.6252L16.7067 50.182L19.4803 51.0821C20.6674 51.4673 21.5149 51.9527 22.023 52.5381Z" fill="#F5F5F5"/>
                    <path d="M25.6486 43.0928L27.5289 39.8829L28.6679 40.5501L26.0901 44.9507L18.8421 40.7049L21.3895 36.3561L22.5285 37.0233L20.6786 40.1814L22.5631 41.2853L24.2614 38.3861L25.39 39.0472L23.6917 41.9464L25.6486 43.0928Z" fill="#F5F5F5"/>
                    <path d="M38.7044 29.5755L37.4527 30.6414L32.3404 29.7465L34.9312 32.7887L33.8806 33.6835L28.4343 27.2883L29.485 26.3935L31.928 29.2622L31.9151 24.324L33.1668 23.2581L33.2344 28.5753L38.7044 29.5755Z" fill="#F5F5F5"/>
                    <path d="M41.2021 18.1795L42.4332 17.5297L43.0428 24.2637C43.19 25.9138 42.6098 27.0341 41.3023 27.6247L40.703 26.4891C41.1428 26.3113 41.4453 26.0702 41.6104 25.766C41.7826 25.458 41.8419 25.0649 41.7884 24.5865L36.5432 20.6383L37.7742 19.9886L41.6452 22.9525L41.2021 18.1795Z" fill="#F5F5F5"/>
                    <path d="M52.8735 13.9037L55.009 22.0277L53.6743 22.3785L51.8744 15.5311L48.5668 16.4006L50.3667 23.248L49.0321 23.5988L46.8965 15.4748L52.8735 13.9037Z" fill="#F5F5F5"/>
                    <path d="M63.8559 21.0576L63.7459 15.3586L59.8966 21.134L58.8168 21.1548L58.6547 12.7564L60.0345 12.7298L60.1445 18.4287L63.9937 12.6533L65.0735 12.6325L65.2356 21.0309L63.8559 21.0576Z" fill="#F5F5F5"/>
                    <path d="M76.1508 14.0547L75.8887 15.3484L73.5718 14.8789L72.1656 21.8179L70.8131 21.5438L72.2192 14.6048L69.8906 14.1329L70.1527 12.8392L76.1508 14.0547Z" fill="#F5F5F5"/>
                    <path d="M82.1844 19.0623C82.9103 19.379 83.4081 19.8885 83.6778 20.5909C83.9579 21.2892 83.9429 21.994 83.6326 22.7052C83.3191 23.4238 82.8112 23.918 82.1088 24.1876C81.4137 24.4605 80.7032 24.4385 79.9773 24.1219L77.1395 22.884L80.4982 15.1846L81.7631 15.7364L80.6115 18.3762L82.1844 19.0623ZM80.4955 22.934C80.8694 23.0971 81.2318 23.1068 81.5825 22.963C81.9365 22.812 82.1982 22.5421 82.3677 22.1535C82.5373 21.7648 82.5554 21.3931 82.4222 21.0382C82.2922 20.676 82.0402 20.4133 81.6662 20.2502L80.0933 19.5641L78.9226 22.2478L80.4955 22.934Z" fill="#F5F5F5"/>
                    <path d="M88.3032 25.4428C88.4933 25.1755 88.7281 24.9694 89.0077 24.8246C89.2872 24.6798 89.5697 24.5862 89.8552 24.5437C90.1452 24.4946 90.4283 24.4554 90.7044 24.4259C90.9852 24.3899 91.2468 24.3256 91.4893 24.233C91.7365 24.1338 91.9296 23.9865 92.0686 23.7908C92.2633 23.517 92.3171 23.2411 92.2299 22.9632C92.1474 22.6789 91.9464 22.4231 91.6269 22.196C91.3204 21.9782 91.0007 21.8687 90.6678 21.8676C90.3349 21.8665 90.0175 21.9747 89.7158 22.1921L89.1368 20.9561C89.6484 20.6229 90.1945 20.4761 90.7749 20.5156C91.3664 20.5533 91.9198 20.7552 92.4349 21.1214C93.0152 21.5339 93.3991 22.057 93.5866 22.6909C93.7741 23.3247 93.6592 23.935 93.2421 24.5219C93.0474 24.7957 92.8057 25.0116 92.5168 25.1694C92.2326 25.3207 91.9455 25.4209 91.6554 25.4699C91.3654 25.519 91.0777 25.5647 90.7923 25.6073C90.5115 25.6432 90.2475 25.7108 90.0004 25.81C89.7532 25.9091 89.5625 26.0532 89.428 26.2423L88.3032 25.4428ZM87.929 28.2685C87.6835 28.31 87.4598 28.2589 87.2576 28.1152C87.0555 27.9716 86.9337 27.777 86.8922 27.5316C86.8507 27.2862 86.9018 27.0624 87.0455 26.8603C87.1891 26.6581 87.3804 26.534 87.6193 26.4879C87.8647 26.4464 88.0918 26.4998 88.3004 26.6481C88.5026 26.7918 88.6244 26.9863 88.6659 27.2318C88.7074 27.4772 88.6563 27.701 88.5126 27.9031C88.3689 28.1052 88.1744 28.227 87.929 28.2685Z" fill="#F5F5F5"/>
                </g>
                <g clip-path="url(#where-buy-clip-0)" class="where-buy__cart">
                    <path class="where-buy__cart-item" d="M61.4749 82.1019C61.4749 79.5743 59.426 77.5254 56.8988 77.5254C54.3712 77.5254 52.3223 79.5743 52.3223 82.1015C52.3223 84.6291 54.3712 86.678 56.8988 86.678C59.4246 86.6753 61.4722 84.6282 61.4749 82.1019ZM53.9455 82.1019C53.9455 80.4706 55.2675 79.1486 56.8988 79.1486C58.5297 79.1486 59.8517 80.4706 59.8517 82.1015C59.8517 83.7328 58.5297 85.0548 56.8988 85.0548C55.2684 85.053 53.9473 83.7319 53.9455 82.1019Z" fill="white" stroke="white" stroke-width="0.7"/>
                    <path class="where-buy__cart-item" d="M73.8456 86.678C76.3732 86.6785 78.4222 84.6296 78.4222 82.1019C78.4226 79.5743 76.3737 77.5254 73.8461 77.5254C71.3184 77.5254 69.2695 79.5743 69.2695 82.1019C69.2727 84.6277 71.3193 86.6749 73.8456 86.678ZM73.8456 79.1486C75.4765 79.1486 76.799 80.4706 76.799 82.1015C76.7994 83.7324 75.477 85.0548 73.8461 85.0548C72.2152 85.0548 70.8927 83.7328 70.8927 82.1019C70.8945 80.4719 72.2156 79.1508 73.8456 79.1486Z" fill="white" stroke="white" stroke-width="0.7"/>
                    <path class="where-buy__cart-item" d="M38.8116 42.8986H43.7622C45.3913 42.8923 46.7803 44.0784 47.0285 45.6889L50.9474 70.4438C51.3174 72.8441 53.3881 74.6127 55.8169 74.6031H80.0405C80.4884 74.6031 80.8521 74.2395 80.8521 73.7916C80.8521 73.3432 80.4884 72.98 80.0405 72.98H55.8169C54.1879 72.9863 52.7988 71.7997 52.5506 70.1897L51.8844 65.9809H76.6936C78.7942 65.98 80.6637 64.6494 81.3521 62.6653L85.9549 49.3809C86.0414 49.1327 86.002 48.8583 85.8498 48.644C85.6972 48.4303 85.4508 48.303 85.1881 48.303H49.0855L48.6317 45.4348C48.2617 43.0345 46.1911 41.2659 43.7622 41.2754H38.8116C38.3632 41.2754 38 41.6391 38 42.087C38 42.5354 38.3632 42.8986 38.8116 42.8986ZM84.0478 49.9267L79.8186 62.1336C79.3567 63.4646 78.1026 64.3573 76.6936 64.3577H51.6272L49.3423 49.9262L84.0478 49.9267Z" fill="white" stroke="white" stroke-width="0.7"/>
                </g>
                <defs>
                    <clipPath id="where-buy-clip-0">
                        <rect x="38" y="40" width="48" height="48" fill="white"/>
                    </clipPath>
                </defs>
            </svg>