<svg width="19" height="18" viewBox="0 0 19 18" fill="none" xmlns="http://www.w3.org/2000/svg">
                                        <path d="M9.31382 15.459C9.31382 14.5638 8.58817 13.8381 7.69312 13.8381C6.79792 13.8381 6.07227 14.5638 6.07227 15.4588C6.07227 16.354 6.79792 17.0797 7.69312 17.0797C8.58768 17.0787 9.31286 16.3537 9.31382 15.459ZM6.64715 15.459C6.64715 14.8812 7.11536 14.413 7.69312 14.413C8.27073 14.413 8.73894 14.8812 8.73894 15.4588C8.73894 16.0366 8.27073 16.5048 7.69312 16.5048C7.11568 16.5042 6.64779 16.0363 6.64715 15.459Z" fill="#3BAB64" stroke="#3BAB64" stroke-width="0.7"/>
                                        <path d="M13.6949 17.0797C14.5901 17.0799 15.3158 16.3542 15.3158 15.459C15.3159 14.5638 14.5903 13.8381 13.6951 13.8381C12.7999 13.8381 12.0742 14.5638 12.0742 15.459C12.0753 16.3536 12.8002 17.0786 13.6949 17.0797ZM13.6949 14.413C14.2725 14.413 14.7409 14.8812 14.7409 15.4588C14.7411 16.0364 14.2727 16.5048 13.6951 16.5048C13.1175 16.5048 12.6491 16.0366 12.6491 15.459C12.6497 14.8817 13.1176 14.4138 13.6949 14.413Z" fill="#3BAB64" stroke="#3BAB64" stroke-width="0.7"/>
                                        <path d="M1.28744 1.57489H3.04078C3.61774 1.57264 4.10969 1.99273 4.19759 2.56312L5.58553 11.3305C5.71658 12.1806 6.44993 12.8069 7.31016 12.8036H15.8894C16.048 12.8036 16.1768 12.6748 16.1768 12.5161C16.1768 12.3573 16.048 12.2287 15.8894 12.2287H7.31016C6.7332 12.231 6.24125 11.8107 6.15335 11.2405L5.9174 9.74987H14.704C15.4479 9.74955 16.1101 9.27829 16.3539 8.57558L17.984 3.87071C18.0147 3.78281 18.0007 3.6856 17.9468 3.60973C17.8928 3.53402 17.8055 3.48895 17.7125 3.48895H4.92613L4.76541 2.47313C4.63436 1.62301 3.90101 0.996645 3.04078 1.00001H1.28744C1.12864 1.00001 1 1.12882 1 1.28745C1 1.44625 1.12864 1.57489 1.28744 1.57489ZM17.3086 4.06399L15.8108 8.38727C15.6471 8.85869 15.203 9.17484 14.704 9.175H5.8263L5.01707 4.06383L17.3086 4.06399Z" fill="#3BAB64" stroke="#3BAB64" stroke-width="0.7"/>
                                    </svg>