<svg viewBox="0 0 712 712" fill="none" xmlns="http://www.w3.org/2000/svg">
                        <g opacity="0.4">
                            <path d="M355.779 501.715C280.569 501.715 219.6 440.746 219.6 365.536C219.6 290.326 280.569 229.356 355.779 229.356C388 229.356 417.608 240.547 440.927 259.253" stroke="white" stroke-width="2" stroke-linecap="round" stroke-linejoin="round" stroke-dasharray="1 8" fill="none"/>
                            <path d="M348.039 190.534C254.887 194.585 180.61 271.386 180.61 365.536C180.61 434.377 220.322 493.943 278.086 522.576" stroke="white" stroke-linecap="round" stroke-linejoin="round" stroke-dasharray="1 8" fill="none"/>
                            <path d="M355.779 190.366C452.523 190.366 530.949 268.792 530.949 365.536C530.949 462.279 452.523 540.706 355.779 540.706C330.132 540.706 305.772 535.194 283.819 525.29" stroke="white" stroke-linejoin="round" fill="none"/>
                            <circle cx="355.779" cy="365.536" r="209.646" stroke="white" stroke-linejoin="round" fill="none"/>
                            <path d="M127.07 447.152C108.74 395.878 107.459 338.164 127.422 282.959C173.028 156.84 312.239 91.5724 438.357 137.179C564.475 182.785 629.743 321.995 584.137 448.113C564.174 503.319 526.275 546.865 479.391 574.556" stroke="white" stroke-linecap="round" stroke-linejoin="round" stroke-dasharray="1 8" fill="none"/>
                            <path d="M128.622 451.372C152.838 515.368 203.809 568.8 273.202 593.893C342.595 618.987 415.951 610.514 475.498 576.807" stroke="white" stroke-linejoin="round" fill="none"/>
                        </g>
                    </svg>