<svg viewBox="0 0 1028 1028" fill="none" xmlns="http://www.w3.org/2000/svg">
                        <g opacity="0.4">
                            <path d="M513.902 724.698C405.266 724.698 317.199 636.631 317.199 527.995C317.199 419.359 405.266 331.292 513.902 331.292C560.444 331.292 603.21 347.456 636.894 374.476" stroke="white" stroke-width="2" stroke-linecap="round" stroke-linejoin="round" stroke-dasharray="1 8" fill="none"/>
                            <path d="M502.723 275.216C368.171 281.067 260.882 392.002 260.882 527.996C260.882 627.433 318.242 713.473 401.68 754.832" stroke="white" stroke-linecap="round" stroke-linejoin="round" stroke-dasharray="1 8" fill="none"/>
                            <path d="M513.904 274.973C653.645 274.973 766.927 388.255 766.927 527.996C766.927 667.736 653.645 781.018 513.904 781.018C476.858 781.018 441.671 773.057 409.962 758.751" stroke="white" stroke-linejoin="round" fill="none"/>
                            <circle cx="513.903" cy="527.995" r="303.044" stroke="white" stroke-linejoin="round" fill="none"/>
                            <path d="M183.545 645.885C157.069 571.823 155.218 488.458 184.054 408.717C249.929 226.547 451.01 132.271 633.181 198.146C815.351 264.022 909.627 465.103 843.752 647.274C814.916 727.015 760.174 789.915 692.452 829.913" stroke="white" stroke-linecap="round" stroke-linejoin="round" stroke-dasharray="1 8" fill="none"/>
                            <path d="M185.787 651.981C220.765 744.42 294.39 821.599 394.624 857.845C494.858 894.091 600.817 881.852 686.829 833.165" stroke="white" stroke-linejoin="round" fill="none"/>
                        </g>
                    </svg>