<svg viewBox="0 0 163 44" fill="none" xmlns="http://www.w3.org/2000/svg">
                                    <path d="M7.07183 40.0748H2.95783L1.73683 41.9998H0.548828L5.58683 34.2998H6.67583L8.62283 41.9998H7.53383L7.07183 40.0748ZM6.85183 39.1948L5.93883 35.3998L3.51883 39.1948H6.85183Z" fill="#3BAB64"/>
                                    <path d="M15.0334 41.0759H15.9244L15.4734 43.3529H14.4834L14.7474 41.9999H9.87438L9.59938 43.3529H8.60938L9.06038 41.0759H9.32438C9.71305 41.0539 10.0321 40.7826 10.2814 40.2619C10.5381 39.7339 10.7837 39.0152 11.0184 38.1059L11.4804 36.1699H16.0124L15.0334 41.0759ZM11.9644 38.2599C11.7737 39.0152 11.5904 39.6239 11.4144 40.0859C11.2384 40.5406 11.0184 40.8706 10.7544 41.0759H13.9774L14.7694 37.0939H12.2394L11.9644 38.2599Z" fill="#3BAB64"/>
                                    <path d="M18.1903 39.4152V39.4812C18.1903 40.0239 18.3443 40.4382 18.6523 40.7242C18.9603 41.0029 19.4223 41.1422 20.0382 41.1422C20.3977 41.1422 20.7349 41.0835 21.0502 40.9662C21.3656 40.8415 21.6296 40.6765 21.8422 40.4712L22.2932 41.2302C22.0072 41.4942 21.6589 41.6995 21.2482 41.8462C20.8376 41.9929 20.4049 42.0662 19.9502 42.0662C19.3782 42.0662 18.8832 41.9635 18.4653 41.7582C18.0473 41.5529 17.7246 41.2595 17.4972 40.8782C17.2699 40.4969 17.1562 40.0495 17.1562 39.5362C17.1562 38.8835 17.2956 38.2969 17.5742 37.7762C17.8602 37.2555 18.2526 36.8485 18.7512 36.5552C19.2572 36.2619 19.8219 36.1152 20.4452 36.1152C21.2372 36.1152 21.8679 36.3425 22.3372 36.7972C22.8139 37.2445 23.0522 37.8569 23.0522 38.6342C23.0522 38.8689 23.0267 39.1292 22.9753 39.4152H18.1903ZM20.4012 36.9952C19.8806 36.9952 19.4332 37.1419 19.0592 37.4352C18.6852 37.7285 18.4322 38.1319 18.3002 38.6452H22.0623C22.0917 38.1245 21.9522 37.7212 21.6442 37.4352C21.3436 37.1419 20.9292 36.9952 20.4012 36.9952Z" fill="#3BAB64"/>
                                    <path d="M31.8311 36.1699L30.6761 41.9999H29.7191L30.5661 37.7649L27.6841 41.3399H27.2221L25.7701 37.6989L24.9231 41.9999H23.9551L25.1211 36.1699H26.1991L27.6951 40.1079L30.8411 36.1699H31.8311Z" fill="#3BAB64"/>
                                    <path d="M33.8094 39.4152V39.4812C33.8094 40.0239 33.9634 40.4382 34.2714 40.7242C34.5794 41.0029 35.0414 41.1422 35.6574 41.1422C36.0167 41.1422 36.354 41.0835 36.6694 40.9662C36.9847 40.8415 37.2487 40.6765 37.4614 40.4712L37.9124 41.2302C37.6264 41.4942 37.278 41.6995 36.8674 41.8462C36.4567 41.9929 36.024 42.0662 35.5694 42.0662C34.9974 42.0662 34.5024 41.9635 34.0844 41.7582C33.6664 41.5529 33.3437 41.2595 33.1164 40.8782C32.889 40.4969 32.7754 40.0495 32.7754 39.5362C32.7754 38.8835 32.9147 38.2969 33.1934 37.7762C33.4794 37.2555 33.8717 36.8485 34.3704 36.5552C34.8764 36.2619 35.441 36.1152 36.0644 36.1152C36.8564 36.1152 37.487 36.3425 37.9564 36.7972C38.433 37.2445 38.6714 37.8569 38.6714 38.6342C38.6714 38.8689 38.6457 39.1292 38.5944 39.4152H33.8094ZM36.0204 36.9952C35.4997 36.9952 35.0524 37.1419 34.6784 37.4352C34.3044 37.7285 34.0514 38.1319 33.9194 38.6452H37.6814C37.7107 38.1245 37.5714 37.7212 37.2634 37.4352C36.9627 37.1419 36.5484 36.9952 36.0204 36.9952Z" fill="#3BAB64"/>
                                    <path d="M44.6619 37.0939H42.5059L41.5489 41.9999H40.4929L41.4499 37.0939H39.3379L39.5139 36.1699H44.8379L44.6619 37.0939Z" fill="#3BAB64"/>
                                    <path d="M45.929 36.1699H46.996L46.116 40.5259L50.516 36.1699H51.517L50.362 41.9999H49.284L50.175 37.6439L45.775 41.9999H44.752L45.929 36.1699Z" fill="#3BAB64"/>
                                    <path d="M55.1941 42.0662C54.6441 42.0662 54.1638 41.9635 53.7531 41.7582C53.3424 41.5455 53.0234 41.2485 52.7961 40.8672C52.5688 40.4859 52.4551 40.0459 52.4551 39.5472C52.4551 38.8945 52.6018 38.3079 52.8951 37.7872C53.1884 37.2665 53.5954 36.8595 54.1161 36.5662C54.6368 36.2655 55.2234 36.1152 55.8761 36.1152C56.4261 36.1152 56.9064 36.2179 57.3171 36.4232C57.7278 36.6285 58.0431 36.9219 58.2631 37.3032C58.4904 37.6772 58.6041 38.1172 58.6041 38.6232C58.6041 39.2759 58.4574 39.8662 58.1641 40.3942C57.8708 40.9149 57.4638 41.3255 56.9431 41.6262C56.4298 41.9195 55.8468 42.0662 55.1941 42.0662ZM55.2601 41.1422C55.6928 41.1422 56.0814 41.0395 56.4261 40.8342C56.7781 40.6215 57.0494 40.3282 57.2401 39.9542C57.4381 39.5802 57.5371 39.1549 57.5371 38.6782C57.5371 38.1575 57.3868 37.7542 57.0861 37.4682C56.7854 37.1822 56.3564 37.0392 55.7991 37.0392C55.3664 37.0392 54.9778 37.1455 54.6331 37.3582C54.2884 37.5635 54.0171 37.8532 53.8191 38.2272C53.6211 38.6012 53.5221 39.0265 53.5221 39.5032C53.5221 40.0165 53.6724 40.4199 53.9731 40.7132C54.2811 40.9992 54.7101 41.1422 55.2601 41.1422Z" fill="#3BAB64"/>
                                    <path d="M60.7109 36.1699H61.7669L61.2719 38.6449H64.5939L65.0889 36.1699H66.1449L64.9789 41.9999H63.9229L64.4179 39.5579H61.0959L60.6009 41.9999H59.5449L60.7109 36.1699Z" fill="#3BAB64"/>
                                    <path d="M68.1985 36.1699H69.2655L68.3855 40.5259L72.7855 36.1699H73.7865L72.6315 41.9999H71.5535L72.4445 37.6439L68.0445 41.9999H67.0215L68.1985 36.1699Z" fill="#3BAB64"/>
                                    <path d="M75.8457 36.1699H76.9017L76.4067 38.6449H79.7287L80.2237 36.1699H81.2797L80.1137 41.9999H79.0577L79.5527 39.5579H76.2307L75.7357 41.9999H74.6797L75.8457 36.1699Z" fill="#3BAB64"/>
                                    <path d="M106.471 40.1078H104.997L104.623 41.9998H103.556L103.941 40.1078H99.6621L99.8051 39.3378L104.7 34.2998H105.943L101.257 39.1618H104.161L104.502 37.4898H105.525L105.195 39.1618H106.658L106.471 40.1078Z" fill="#3BAB64"/>
                                    <path d="M110.011 42.0879C109.197 42.0879 108.559 41.8386 108.097 41.3399C107.635 40.8412 107.404 40.1482 107.404 39.2609C107.404 38.3662 107.565 37.5339 107.888 36.7639C108.21 35.9866 108.665 35.3669 109.252 34.9049C109.846 34.4429 110.528 34.2119 111.298 34.2119C112.112 34.2119 112.746 34.4612 113.201 34.9599C113.663 35.4586 113.894 36.1516 113.894 37.0389C113.894 37.9336 113.732 38.7696 113.41 39.5469C113.087 40.3169 112.629 40.9329 112.035 41.3949C111.448 41.8569 110.773 42.0879 110.011 42.0879ZM110.099 41.1089C110.641 41.1089 111.118 40.9036 111.529 40.4929C111.939 40.0822 112.251 39.5652 112.464 38.9419C112.684 38.3112 112.794 37.6842 112.794 37.0609C112.794 36.4596 112.654 35.9976 112.376 35.6749C112.097 35.3522 111.708 35.1909 111.21 35.1909C110.66 35.1909 110.179 35.3962 109.769 35.8069C109.358 36.2176 109.043 36.7382 108.823 37.3689C108.61 37.9922 108.504 38.6156 108.504 39.2389C108.504 39.8402 108.643 40.3022 108.922 40.6249C109.2 40.9476 109.593 41.1089 110.099 41.1089Z" fill="#3BAB64"/>
                                    <path d="M117.337 42.0879C116.523 42.0879 115.885 41.8386 115.423 41.3399C114.961 40.8412 114.73 40.1482 114.73 39.2609C114.73 38.3662 114.891 37.5339 115.214 36.7639C115.536 35.9866 115.991 35.3669 116.578 34.9049C117.172 34.4429 117.854 34.2119 118.624 34.2119C119.438 34.2119 120.072 34.4612 120.527 34.9599C120.989 35.4586 121.22 36.1516 121.22 37.0389C121.22 37.9336 121.058 38.7696 120.736 39.5469C120.413 40.3169 119.955 40.9329 119.361 41.3949C118.774 41.8569 118.099 42.0879 117.337 42.0879ZM117.425 41.1089C117.967 41.1089 118.444 40.9036 118.855 40.4929C119.265 40.0822 119.577 39.5652 119.79 38.9419C120.01 38.3112 120.12 37.6842 120.12 37.0609C120.12 36.4596 119.98 35.9976 119.702 35.6749C119.423 35.3522 119.034 35.1909 118.536 35.1909C117.986 35.1909 117.505 35.3962 117.095 35.8069C116.684 36.2176 116.369 36.7382 116.149 37.3689C115.936 37.9922 115.83 38.6156 115.83 39.2389C115.83 39.8402 115.969 40.3022 116.248 40.6249C116.526 40.9476 116.919 41.1089 117.425 41.1089Z" fill="#3BAB64"/>
                                    <path d="M132.722 36.1699L131.567 41.9999H130.61L131.457 37.7649L128.575 41.3399H128.113L126.661 37.6989L125.814 41.9999H124.846L126.012 36.1699H127.09L128.586 40.1079L131.732 36.1699H132.722Z" fill="#3BAB64"/>
                                    <path d="M138.88 37.0939H135.646L134.667 41.9999H133.611L134.777 36.1699H139.067L138.88 37.0939Z" fill="#3BAB64"/>
                                    <path d="M158.646 0.999816C159.212 0.982265 159.775 1.07917 160.302 1.28475C160.829 1.49032 161.31 1.80035 161.715 2.1963C162.12 2.59225 162.441 3.066 162.66 3.58925C162.878 4.11249 162.989 4.67449 162.986 5.24166C162.986 6.39551 162.528 7.50211 161.715 8.31801C160.901 9.1339 159.797 9.59227 158.646 9.59227C157.496 9.59227 156.392 9.1339 155.578 8.31801C154.764 7.50211 154.307 6.39551 154.307 5.24166C154.303 4.6742 154.413 4.11174 154.631 3.58803C154.849 3.06432 155.17 2.59016 155.576 2.19401C155.981 1.79785 156.462 1.48787 156.989 1.28266C157.517 1.07745 158.081 0.981242 158.646 0.999816ZM158.646 8.59163C159.078 8.58903 159.504 8.49952 159.9 8.32841C160.296 8.1573 160.654 7.90809 160.952 7.59558C161.251 7.28308 161.483 6.91367 161.636 6.50929C161.789 6.10491 161.859 5.67383 161.843 5.24166C161.864 4.80747 161.796 4.37361 161.644 3.96635C161.493 3.55909 161.261 3.1869 160.961 2.87232C160.662 2.55774 160.302 2.30732 159.904 2.13621C159.505 1.96511 159.076 1.87689 158.643 1.87689C158.209 1.87689 157.78 1.96511 157.382 2.13621C156.983 2.30732 156.623 2.55774 156.324 2.87232C156.025 3.1869 155.793 3.55909 155.641 3.96635C155.49 4.37361 155.422 4.80747 155.443 5.24166C155.424 5.67494 155.493 6.1075 155.646 6.51327C155.799 6.91903 156.032 7.2896 156.331 7.60262C156.63 7.91565 156.99 8.16466 157.388 8.33463C157.786 8.50461 158.214 8.59203 158.646 8.59163ZM156.954 2.84883H158.748C159.934 2.84883 160.606 3.22588 160.606 4.29903C160.618 4.46773 160.593 4.63694 160.535 4.79552C160.476 4.9541 160.385 5.09844 160.267 5.21903C160.149 5.33961 160.006 5.4337 159.849 5.4951C159.692 5.55649 159.524 5.5838 159.355 5.57521L160.657 7.61999H159.666L158.487 5.58246H157.902V7.61999H156.961L156.954 2.84883ZM157.894 4.84286H158.733C159.276 4.84286 159.666 4.76309 159.666 4.18301C159.666 3.60293 159.117 3.58843 158.69 3.58843H157.894V4.84286Z" fill="#3BAB64"/>
                                    <path d="M128.938 6.65537C128.781 6.64548 128.624 6.64548 128.468 6.65537H122.429C120.006 6.65537 118.683 8.10557 118.516 9.18597L118.191 11.3613H125.293H126.226C128.793 11.499 129.769 12.2241 129.372 14.8418L129.328 15.1173H127.26C118.524 15.1173 115.009 18.0177 114.43 21.8245C113.852 25.6313 117.287 28.6114 122.928 28.6114H124.114C129.401 28.6114 133.581 25.4717 134.239 20.9471L134.962 16.0309C135.946 9.50502 133.19 7.10493 128.887 6.64812L128.938 6.65537ZM128.439 20.9906C128.106 23.1659 126.703 24.2826 124.15 24.2826C121.597 24.2826 120.194 23.2892 120.455 21.6215C120.715 19.9537 122.14 18.9241 126.631 18.9241H128.742L128.439 20.9906Z" fill="#3BAB64"/>
                                    <path d="M21.6007 5.84351H12.1992L8.40965 28.2563H5.97971C4.21511 28.2563 2.66024 26.9874 3.08692 24.6308L6.34854 5.16191C6.83308 2.30501 8.58321 1.07959 12.2064 1.07959H25.7157L25.3469 3.2549C25.1589 4.3643 23.9005 5.83626 21.6007 5.83626" fill="#3BAB64"/>
                                    <path d="M30.4815 19.8525H26.5835C26.5835 22.5499 29.0206 24.2539 32.5064 24.2539C34.9798 24.2539 37.9666 23.8188 40.1362 22.2308H40.3531L40.0711 23.8986C39.6082 26.6395 37.1783 28.7422 30.6695 28.7422C24.7538 28.7422 19.6769 24.5367 20.7834 17.989C21.2505 14.7222 22.8928 11.7395 25.4011 9.60261C27.9093 7.46571 31.1104 6.32217 34.4012 6.38741C39.3479 6.38741 43.405 9.56336 42.5444 14.6753C41.8501 18.5763 38.3282 19.8525 30.4815 19.8525ZM33.1139 10.8033C31.7789 10.8059 30.4832 11.2574 29.4343 12.0856C28.3855 12.9137 27.6439 14.0707 27.3284 15.3714L27.1693 16.0965H29.8162C35.4209 16.0965 36.8022 15.5454 37.0481 14.0372C37.4097 11.8619 35.8259 10.8178 33.085 10.8178" fill="#3BAB64"/>
                                    <path d="M63.1773 28.2567C60.3496 28.2567 58.9393 26.9515 59.366 24.4499L60.7473 16.278C61.3765 12.551 60.1326 10.9992 56.56 10.9992C55.1564 11.0086 53.7595 11.1937 52.4016 11.5503L49.574 28.2277H48.1276C45.2999 28.2277 43.8896 26.9225 44.3091 24.4209L47.1151 7.8233C50.4329 7.01607 53.8268 6.56398 57.2398 6.47461C63.2858 6.47461 67.9504 8.41788 66.5908 16.4738L64.6309 28.2567H63.1773Z" fill="#3BAB64"/>
                                    <path d="M85.9647 11.2747H82.4355L79.5427 28.2565H78.0963C75.2686 28.2565 73.8584 26.9441 74.2778 24.4497L76.5053 11.2747H68.8828L69.1215 9.82445C69.3746 8.338 71.0524 6.80078 73.3883 6.80078H90.745L90.5064 8.338C90.2605 9.7882 88.4597 11.2747 85.9864 11.2747" fill="#3BAB64"/>
                                    <path d="M100.103 28.7349C98.9844 28.7867 97.8741 28.5148 96.9048 27.9517C95.9354 27.3887 95.1479 26.5581 94.6361 25.5589C94.1299 28.5391 93.0379 34.9852 93.0379 34.9852H91.1865C89.0603 34.9852 87.2668 33.5931 87.6573 31.2945L89.8269 18.3587C91.0274 11.2599 95.3955 6.34375 103.784 6.34375C110.098 6.34375 113.721 11.4992 112.817 16.894C111.652 23.7607 107.031 28.7204 100.089 28.7204L100.103 28.7349ZM102.077 11.0787C98.809 11.0787 96.5743 13.6165 95.9451 17.3073C95.2219 21.5926 97.1529 24.0145 100.689 24.0145C103.582 24.0145 105.932 21.7086 106.511 18.2934C107.357 13.2612 105.874 11.0424 102.077 11.0424" fill="#3BAB64"/>
                                    <path d="M153.685 28.2562C151.652 28.2562 150.604 26.864 150.582 25.7184C150.507 21.4397 149.68 17.2079 148.138 13.2176C144.851 17.8308 142.247 22.8961 140.407 28.2562H137.883C135.858 28.2562 135.243 27.4659 135.532 25.7184C135.641 25.0803 136.617 22.7455 138.678 19.1925C140.927 15.2624 144.464 10.1069 147.646 6.86572H148.796C150.56 6.86572 151.392 7.42405 152.318 9.04102C154.798 13.4424 157.322 22.5279 156.874 28.3215L153.685 28.2562Z" fill="#3BAB64"/>
                                </svg>