<svg width="70" height="70" viewBox="0 0 70 70" fill="none" xmlns="http://www.w3.org/2000/svg">
                           <path d="M64.8238 30.6984C65.1586 30.9423 65.6277 30.8687 65.8716 30.5339L69.8466 25.0784C70.0905 24.7437 70.0169 24.2745 69.6821 24.0306C69.3473 23.7867 68.8782 23.8603 68.6343 24.1951L65.101 29.0444L60.2517 25.5111C59.9169 25.2671 59.4478 25.3408 59.2039 25.6756C58.9599 26.0103 59.0336 26.4795 59.3683 26.7234L64.8238 30.6984ZM64.8386 36.8063C63.8326 53.6751 49.3422 66.5343 32.4734 65.5282L32.3841 67.0256C50.0798 68.081 65.2806 54.5913 66.336 36.8956L64.8386 36.8063ZM32.4734 65.5282C15.6047 64.5222 2.74545 50.0318 3.75151 33.163L2.25418 33.0737C1.19879 50.7694 14.6884 65.9702 32.3841 67.0256L32.4734 65.5282ZM3.75151 33.163C4.75758 16.2943 19.248 3.43507 36.1167 4.44114L36.206 2.9438C18.5103 1.88841 3.30956 15.378 2.25418 33.0737L3.75151 33.163ZM36.1167 4.44114C50.7344 5.31295 62.3428 16.3112 64.5245 30.2085L66.0064 29.9759C63.7177 15.3969 51.5422 3.85846 36.206 2.9438L36.1167 4.44114Z" fill="white"/>
                           <path d="M37.8539 28.9842H43.4629L31.9486 49.368L34.1326 36.4702L34.3302 35.3033H33.1466H27.1643L32.249 18.1777H40.9046L36.9325 27.5956L36.3468 28.9842H37.8539Z" stroke="white" stroke-width="2"/>
                        </svg>