<svg width="145" height="145" viewBox="0 0 145 145" fill="none" xmlns="http://www.w3.org/2000/svg">
                            <circle cx="72.5" cy="72.5" r="62.5" stroke="#3BAB64" stroke-width="2"/>
                            <circle cx="72.5" cy="72.5" r="44.5" fill="#3BAB64"/>
                            <mask id="advantages-icon-6-mask0" maskUnits="userSpaceOnUse" x="59" y="55" width="70" height="74">
                                <mask id="advantages-icon-6-path-3-inside-1" fill="white">
                                    <path d="M59.9622 127.591C69.7029 129.808 79.8573 129.403 89.3903 126.416C98.9233 123.43 107.494 117.969 114.229 110.591C120.964 103.213 125.622 94.1812 127.729 84.416C129.836 74.6509 129.316 64.5018 126.222 55.003L72.5 72.5L59.9622 127.591Z"/>
                                </mask>
                                <path d="M59.9622 127.591C69.7029 129.808 79.8573 129.403 89.3903 126.416C98.9233 123.43 107.494 117.969 114.229 110.591C120.964 103.213 125.622 94.1812 127.729 84.416C129.836 74.6509 129.316 64.5018 126.222 55.003L72.5 72.5L59.9622 127.591Z" fill="#CAD3DB" stroke="white" stroke-width="4" mask="url(#advantages-icon-6-path-3-inside-1)"/>
                            </mask>
                            <g mask="url(#advantages-icon-6-mask0)">
                                <circle cx="72.5" cy="72.5" r="55.5" stroke="#3BAB64" stroke-width="2" stroke-dasharray="2 5"/>
                            </g>
                            <mask id="advantages-icon-6-mask1" maskUnits="userSpaceOnUse" x="72" y="4" width="73" height="69">
                                <mask id="advantages-icon-6-path-5-inside-2" fill="white">
                                    <path d="M145 72.5C145 57.8964 140.59 43.6332 132.347 31.5783C124.104 19.5234 112.413 10.2388 98.8046 4.94025L72.5 72.5H145Z"/>
                                </mask>
                                <path d="M145 72.5C145 57.8964 140.59 43.6332 132.347 31.5783C124.104 19.5234 112.413 10.2388 98.8046 4.94025L72.5 72.5H145Z" fill="white" stroke="white" stroke-width="4" mask="url(#advantages-icon-6-path-5-inside-2)"/>
                            </mask>
                            <g mask="url(#advantages-icon-6-mask1)">
                                <circle cx="72.5" cy="72.5" r="71.5" stroke="#3BAB64" stroke-width="2"/>
                            </g>
                            <circle cx="95" cy="5" r="3" stroke="#3BAB64" stroke-width="2"/>
                            <path d="M59.8938 69.8533C57.5237 72.3962 56.8868 76.102 58.2723 79.2904C59.6578 82.4787 62.8021 84.5424 66.2783 84.5445H66.594C70.5451 84.4059 73.9104 81.6299 74.799 77.7776C75.6876 73.9246 73.8777 69.9557 70.3866 68.1003C66.8947 66.2456 62.5924 66.9664 59.8967 69.859L59.8938 69.8533ZM70.5451 79.7794C69.4951 80.9126 68.0349 81.5787 66.4909 81.6285C64.9447 81.6967 63.4376 81.1337 62.3151 80.0688C59.9614 77.8764 59.8313 74.1919 62.0237 71.8381C64.216 69.4851 67.9013 69.3543 70.2543 71.5474C72.6074 73.7397 72.7382 77.425 70.5451 79.778V79.7794Z" fill="#6FCF97"/>
                            <path d="M84.9234 43.0031C79.6052 42.8879 74.7456 46.003 72.63 50.884C72.1011 52.1608 70.7824 52.9235 69.4125 52.7465C60.7994 51.5785 52.2531 55.305 47.2477 62.4111C42.2431 69.5171 41.6125 78.8198 45.6127 86.5365C49.6135 94.2525 57.5791 99.0986 66.2704 99.1036H66.5618C73.5229 99.0232 80.0815 95.8314 84.44 90.403C88.7977 84.9747 90.4967 77.8807 89.07 71.0675C88.7913 69.7119 89.4581 68.3384 90.6951 67.7186C94.2346 65.8795 96.7433 62.5269 97.5082 58.6121C98.2739 54.6972 97.2125 50.6466 94.6256 47.6096C92.1936 44.7654 88.6655 43.0905 84.9234 43.0031Z" fill="#6FCF97"/>
                            <path d="M84.937 49.7516C82.1603 49.8497 79.84 51.8956 79.3942 54.6375C78.9485 57.3801 80.5025 60.0552 83.1051 61.027C85.7076 61.9988 88.6351 60.9971 90.096 58.6341C91.5568 56.2711 91.1452 53.2043 89.1121 51.3105C87.9889 50.247 86.4825 49.6847 84.937 49.7516ZM87.2666 57.5564C86.3681 58.5211 84.9342 58.7614 83.7698 58.1436C82.606 57.5251 82.0025 56.2022 82.2982 54.9183C82.594 53.6337 83.7157 52.7081 85.033 52.6619H85.1375C86.2977 52.6584 87.3491 53.3444 87.814 54.4072C88.2782 55.4699 88.0678 56.7069 87.278 57.5564H87.2666Z" fill="#6FCF97"/>
                            <path d="M60.1419 70.0364C57.7718 72.5793 57.1348 76.2851 58.5203 79.4735C59.9059 82.6618 63.0501 84.7255 66.5264 84.7276H66.842C70.7931 84.589 74.1585 81.813 75.0471 77.9607C75.9357 74.1077 74.1258 70.1388 70.6346 68.2834C67.1427 66.4287 62.8404 67.1495 60.1447 70.0421L60.1419 70.0364ZM70.7931 79.9626C69.7431 81.0957 68.283 81.7618 66.7389 81.8116C65.1927 81.8798 63.6857 81.3168 62.5632 80.2519C60.2094 78.0595 60.0793 74.375 62.2717 72.0212C64.4641 69.6682 68.1493 69.5374 70.5024 71.7305C72.8554 73.9228 72.9862 77.6081 70.7931 79.9611V79.9626Z" fill="white"/>
                            <path d="M85.1714 43.1862C79.8533 43.071 74.9936 46.1861 72.878 51.0671C72.3491 52.3439 71.0304 53.1066 69.6605 52.9296C61.0474 51.7616 52.5011 55.4881 47.4958 62.5942C42.4911 69.7002 41.8605 79.0029 45.8607 86.7196C49.8616 94.4356 57.8271 99.2817 66.5184 99.2867H66.8099C73.7709 99.2063 80.3296 96.0145 84.688 90.5861C89.0458 85.1578 90.7448 78.0638 89.318 71.2507C89.0394 69.895 89.7062 68.5216 90.9431 67.9017C94.4826 66.0626 96.9914 62.71 97.7563 58.7952C98.5219 54.8803 97.4606 50.8297 94.8736 47.7928C92.4417 44.9485 88.9135 43.2736 85.1714 43.1862ZM93.3829 61.9323C92.4289 63.3655 91.1265 64.5313 89.5974 65.3218C87.1932 66.5346 85.9065 69.214 86.4617 71.8485C88.3057 80.7112 84.0809 89.7274 76.0898 93.9799C68.0994 98.2331 58.2607 96.7033 51.9395 90.2236C44.6031 82.5033 44.333 70.4729 51.3146 62.4307C55.8288 57.3798 62.5574 54.9016 69.2688 55.818C71.9361 56.1891 74.5181 54.7133 75.551 52.2259C76.0116 51.1638 76.6521 50.1884 77.4441 49.3432C79.4303 47.2304 82.2163 46.0532 85.1167 46.1023C88.0363 46.1542 90.791 47.465 92.6741 49.6972C95.5824 53.1735 95.8703 58.144 93.3829 61.9323Z" fill="white"/>
                            <path d="M85.1851 49.9347C82.4084 50.0328 80.088 52.0787 79.6423 54.8206C79.1966 57.5632 80.7506 60.2383 83.3531 61.2101C85.9557 62.1819 88.8831 61.1802 90.344 58.8172C91.8049 56.4542 91.3933 53.3875 89.3601 51.4936C88.2369 50.4302 86.7306 49.8678 85.1851 49.9347ZM87.5147 57.7395C86.6161 58.7042 85.1822 58.9445 84.0178 58.3267C82.8541 57.7082 82.2505 56.3853 82.5463 55.1014C82.842 53.8168 83.9638 52.8913 85.2811 52.845H85.3856C86.5457 52.8415 87.5971 53.5275 88.0621 54.5903C88.5263 55.6531 88.3158 56.89 87.526 57.7395H87.5147Z" fill="white"/>
                        </svg>