<svg viewBox="0 0 145 145" fill="none" xmlns="http://www.w3.org/2000/svg">
                        <mask id="cards-1-mask-0" maskUnits="userSpaceOnUse" x="16" y="18" width="57" height="88">
                            <mask id="cards-1-path-1-inside-1" fill="white">
                                <path d="M58.7409 18.0289C49.8183 20.26 41.5776 24.6273 34.735 30.7511C27.8924 36.875 22.6548 44.5702 19.4772 53.1682C16.2997 61.7662 15.2784 71.0068 16.502 80.0873C17.7256 89.1677 21.1572 97.8133 26.4985 105.273L72.5 72.6031L58.7409 18.0289Z"/>
                            </mask>
                            <path d="M58.7409 18.0289C49.8183 20.26 41.5776 24.6273 34.735 30.7511C27.8924 36.875 22.6548 44.5702 19.4772 53.1682C16.2997 61.7662 15.2784 71.0068 16.502 80.0873C17.7256 89.1677 21.1572 97.8133 26.4985 105.273L72.5 72.6031L58.7409 18.0289Z" fill="white" stroke="white" stroke-width="4" mask="url(#cards-1-path-1-inside-1)"/>
                        </mask>
                        <g mask="url(#cards-1-mask-0)">
                            <path d="M128.7 66.7726C128.866 68.3715 128.964 69.9903 128.992 71.6261L127.992 71.6432C127.997 71.9625 128 72.2825 128 72.6031C128 72.9238 127.997 73.2438 127.992 73.5631L128.992 73.5802C128.964 75.216 128.866 76.8348 128.7 78.4337L127.706 78.3309C127.64 78.9677 127.563 79.6012 127.476 80.2313L128.466 80.3686C128.242 81.9868 127.949 83.583 127.589 85.1542L126.614 84.9312C126.472 85.5535 126.319 86.1718 126.156 86.7858L127.122 87.0428C126.703 88.6185 126.218 90.1671 125.668 91.6855L124.728 91.3451C124.51 91.9456 124.283 92.5413 124.046 93.1319L124.973 93.5049C124.366 95.0152 123.695 96.4931 122.964 97.9355L122.072 97.4832C121.784 98.052 121.485 98.6152 121.178 99.1726L122.054 99.6556C121.268 101.079 120.423 102.465 119.521 103.81L118.691 103.253C118.336 103.783 117.971 104.306 117.599 104.823L118.409 105.408C117.459 106.725 116.453 107.999 115.395 109.227L114.637 108.574C114.221 109.057 113.797 109.533 113.364 110.001L114.099 110.68C112.999 111.872 111.847 113.016 110.648 114.11L109.974 113.371C109.503 113.8 109.025 114.222 108.54 114.635L109.188 115.396C107.954 116.447 106.674 117.445 105.351 118.388L104.77 117.574C104.252 117.944 103.726 118.305 103.194 118.657L103.746 119.491C102.397 120.385 101.006 121.222 99.578 122L99.0995 121.122C98.5406 121.427 97.9759 121.722 97.4056 122.008L97.8534 122.902C96.4079 123.626 94.9268 124.29 93.4136 124.891L93.0446 123.961C92.4529 124.196 91.8563 124.421 91.2548 124.636L91.5914 125.578C90.0712 126.121 88.5208 126.602 86.9433 127.016L86.6894 126.049C86.0748 126.21 85.456 126.361 84.8332 126.502L85.0536 127.477C83.4817 127.833 81.8848 128.123 80.2661 128.344L80.1305 127.353C79.5 127.44 78.8662 127.515 78.2291 127.581L78.3307 128.575C76.7316 128.739 75.1128 128.835 73.477 128.863L73.4602 127.863C73.1408 127.869 72.8207 127.871 72.5 127.871C72.1793 127.871 71.8592 127.869 71.5398 127.863L71.523 128.863C69.8872 128.835 68.2684 128.739 66.6693 128.575L66.7709 127.581C66.1338 127.515 65.5 127.44 64.8695 127.353L64.7339 128.344C63.1152 128.123 61.5183 127.833 59.9464 127.477L60.1668 126.502C59.544 126.361 58.9252 126.21 58.3106 126.049L58.0567 127.016C56.4792 126.602 54.9288 126.121 53.4086 125.578L53.7452 124.636C53.1437 124.421 52.5471 124.196 51.9554 123.961L51.5864 124.891C50.0731 124.29 48.5921 123.626 47.1466 122.902L47.5944 122.008C47.0241 121.722 46.4593 121.427 45.9004 121.122L45.422 122C43.9939 121.222 42.6033 120.385 41.2535 119.491L41.8057 118.657C41.2738 118.305 40.7483 117.944 40.2295 117.574L39.649 118.388C38.3264 117.445 37.0463 116.447 35.8122 115.396L36.4604 114.635C35.9748 114.222 35.4965 113.8 35.0257 113.371L34.3518 114.11C33.1528 113.016 32.0013 111.872 30.9008 110.68L31.6355 110.001C31.2031 109.533 30.7788 109.057 30.3626 108.574L29.605 109.227C28.5468 107.999 27.5409 106.725 26.5906 105.408L27.4015 104.823C27.0286 104.306 26.6644 103.783 26.3092 103.253L25.4786 103.81C24.5767 102.465 23.7315 101.079 22.9463 99.6556L23.8219 99.1726C23.5145 98.6152 23.2164 98.052 22.928 97.4832L22.0361 97.9355C21.3046 96.4931 20.6337 95.0152 20.0266 93.5048L20.9544 93.1319C20.717 92.5413 20.4895 91.9456 20.2722 91.3451L19.3319 91.6855C18.7824 90.1671 18.2965 88.6185 17.8777 87.0427L18.8441 86.7858C18.6808 86.1718 18.528 85.5535 18.3856 84.9312L17.4108 85.1542C17.0514 83.583 16.758 81.9868 16.5337 80.3686L17.5242 80.2313C17.4369 79.6012 17.3602 78.9677 17.2944 78.3309L16.2997 78.4337C16.1344 76.8348 16.0363 75.216 16.0083 73.5802L17.0082 73.5631C17.0027 73.2438 17 72.9238 17 72.6031C17 72.2825 17.0027 71.9625 17.0082 71.6432L16.0083 71.6261C16.0363 69.9903 16.1344 68.3715 16.2997 66.7726L17.2944 66.8754C17.3602 66.2386 17.4369 65.6051 17.5242 64.975L16.5337 64.8377C16.758 63.2195 17.0514 61.6233 17.4108 60.0521L18.3856 60.2751C18.528 59.6528 18.6808 59.0345 18.8441 58.4205L17.8777 58.1635C18.2965 56.5878 18.7824 55.0392 19.3319 53.5208L20.2722 53.8612C20.4895 53.2607 20.717 52.665 20.9544 52.0744L20.0266 51.7014C20.6337 50.1911 21.3046 48.7132 22.0361 47.2708L22.928 47.7231C23.2165 47.1543 23.5145 46.5911 23.8219 46.0337L22.9463 45.5507C23.7315 44.1273 24.5767 42.7413 25.4786 41.3962L26.3092 41.9531C26.6644 41.4233 27.0286 40.9 27.4015 40.3833L26.5906 39.7981C27.5409 38.4814 28.5468 37.2073 29.605 35.9792L30.3626 36.632C30.7788 36.149 31.2031 35.6733 31.6355 35.205L30.9008 34.5266C32.0013 33.3348 33.1528 32.1903 34.3518 31.0968L35.0257 31.8356C35.4965 31.4062 35.9748 30.9847 36.4604 30.5714L35.8122 29.8099C37.0463 28.7596 38.3264 27.7612 39.649 26.8183L40.2295 27.6326C40.7483 27.2628 41.2738 26.9016 41.8057 26.5493L41.2535 25.7156C42.6033 24.8216 43.994 23.9839 45.422 23.2059L45.9005 24.084C46.4593 23.7795 47.0241 23.4843 47.5944 23.1986L47.1466 22.3045C48.5921 21.5804 50.0732 20.9163 51.5864 20.3155L51.9554 21.2449C52.5471 21.01 53.1437 20.7849 53.7452 20.5699L53.4086 19.6283C54.9288 19.0848 56.4792 18.6044 58.0567 18.1902L58.3106 19.1575C58.9252 18.9961 59.544 18.845 60.1668 18.7042L59.9464 17.7288C61.5183 17.3737 63.1152 17.0838 64.7339 16.8621L64.8695 17.8529C65.5 17.7666 66.1338 17.6908 66.7709 17.6258L66.6693 16.6309C68.2684 16.4677 69.8872 16.3708 71.523 16.3432L71.5398 17.3431C71.8592 17.3377 72.1793 17.335 72.5 17.335C72.8207 17.335 73.1408 17.3377 73.4602 17.3431L73.477 16.3432C75.1128 16.3708 76.7316 16.4677 78.3307 16.6309L78.2291 17.6258C78.8662 17.6908 79.5 17.7666 80.1305 17.8529L80.2661 16.8621C81.8848 17.0838 83.4817 17.3737 85.0536 17.7288L84.8332 18.7042C85.456 18.845 86.0748 18.9961 86.6894 19.1575L86.9433 18.1902C88.5208 18.6044 90.0712 19.0848 91.5914 19.6283L91.2548 20.5699C91.8563 20.7849 92.4529 21.01 93.0446 21.2449L93.4136 20.3155C94.9268 20.9163 96.4079 21.5804 97.8534 22.3045L97.4056 23.1986C97.9759 23.4843 98.5407 23.7795 99.0996 24.084L99.578 23.2059C101.006 23.9839 102.397 24.8216 103.746 25.7156L103.194 26.5493C103.726 26.9016 104.252 27.2628 104.77 27.6326L105.351 26.8184C106.674 27.7613 107.954 28.7596 109.188 29.8099L108.54 30.5715C109.025 30.9847 109.503 31.4062 109.974 31.8356L110.648 31.0968C111.847 32.1903 112.999 33.3348 114.099 34.5266L113.364 35.205C113.797 35.6733 114.221 36.149 114.637 36.632L115.395 35.9792C116.453 37.2073 117.459 38.4814 118.409 39.7981L117.599 40.3833C117.971 40.9 118.336 41.4233 118.691 41.9531L119.521 41.3962C120.423 42.7413 121.269 44.1273 122.054 45.5507L121.178 46.0337C121.485 46.5911 121.784 47.1543 122.072 47.7231L122.964 47.2708C123.695 48.7132 124.366 50.1912 124.973 51.7015L124.046 52.0744C124.283 52.6651 124.51 53.2607 124.728 53.8612L125.668 53.5208C126.218 55.0392 126.703 56.5878 127.122 58.1636L126.156 58.4205C126.319 59.0345 126.472 59.6528 126.614 60.2751L127.589 60.0521C127.949 61.6233 128.242 63.2195 128.466 64.8377L127.476 64.975C127.563 65.6051 127.64 66.2386 127.706 66.8754L128.7 66.7726Z" stroke="white" stroke-width="2" stroke-dasharray="2 5" fill="none"/>
                        </g>
                        <mask id="cards-1-mask-1" maskUnits="userSpaceOnUse" x="72" y="59" width="73" height="76">
                            <mask id="cards-1-path-3-inside-2" fill="white">
                                <path d="M110.276 134.23C122.728 126.66 132.597 115.524 138.593 102.279C144.589 89.034 146.434 74.2954 143.885 59.9898L72.5 72.603L110.276 134.23Z"/>
                            </mask>
                            <path d="M110.276 134.23C122.728 126.66 132.597 115.524 138.593 102.279C144.589 89.034 146.434 74.2954 143.885 59.9898L72.5 72.603L110.276 134.23Z" fill="white" stroke="white" stroke-width="4" mask="url(#cards-1-path-3-inside-2)"/>
                        </mask>
                        <g class="s-cards__spinner" mask="url(#cards-1-mask-1)">
                            <path d="M144 72.603C144 111.923 111.992 143.806 72.5 143.806C33.0078 143.806 1 111.923 1 72.603C1 33.2828 33.0078 1.40039 72.5 1.40039C111.992 1.40039 144 33.2828 144 72.603Z" stroke="white" stroke-width="2" fill="none"/>
                        </g>
                        <path d="M71.1076 95.5625C66.2464 95.5625 62.291 99.5445 62.291 104.438C62.291 109.332 66.2464 113.314 71.1076 113.314C73.4942 113.314 75.7416 112.368 77.4358 110.65C79.0775 108.986 80.0197 106.722 80.0197 104.438C80.0197 102.092 79.0856 99.8699 77.3905 98.1809C75.6947 96.4928 73.4634 95.5625 71.1076 95.5625ZM71.1076 110.178C67.9819 110.178 65.4393 107.604 65.4393 104.438C65.4393 101.273 67.9819 98.698 71.1076 98.698C74.2317 98.698 76.8705 101.327 76.8705 104.438C76.8705 107.55 74.2317 110.178 71.1076 110.178Z" fill="white"/>
                        <path d="M86.2782 71.0774C86.9341 71.6476 87.928 71.58 88.4998 70.9276C92.2935 66.5994 94.2174 62.0682 94.2174 57.4606C94.2174 52.6016 92.0258 48.1969 88.0469 45.0582C84.047 41.9035 78.6189 40.2363 72.3481 40.2363C64.5909 40.2363 59.7928 42.8442 57.1345 45.0317C53.9199 47.6766 52 51.2236 52 54.5192C52 56.6616 52.8807 58.5486 54.4803 59.8333C55.7969 60.8907 57.5502 61.4972 59.2922 61.4972C62.2933 61.4972 63.6091 59.5651 64.6661 58.0123C66.0053 56.0463 67.2694 54.189 72.061 54.189C73.7035 54.189 79.0629 54.5418 79.0629 59.0746C79.0629 62.4959 75.887 64.9242 73.0848 67.0665C72.3926 67.5949 71.7391 68.095 71.1294 68.6105C67.9026 71.3802 64.1979 75.6585 64.1979 84.2239C64.1979 88.9814 65.3568 92.1506 71.0137 92.1506C73.5191 92.1506 75.4107 91.5852 76.6359 90.4706C77.6646 89.5347 78.2089 88.2275 78.2089 86.69C78.2089 82.0687 78.2089 79.7491 82.9415 76.0628L83.0224 76C83.231 75.8381 83.472 75.6505 83.7373 75.437C84.4142 74.8934 84.5201 73.9068 83.9742 73.2327C83.4283 72.5585 82.4376 72.453 81.7608 72.9967C81.5092 73.1988 81.282 73.3752 81.0855 73.5282L81.0022 73.5927C75.3363 78.0062 75.0605 81.2818 75.0605 86.6908C75.0605 87.3859 75.0605 89.0152 71.0137 89.0152C69.0372 89.0152 68.4355 88.6037 68.1323 88.2445C67.6034 87.6187 67.3462 86.3034 67.3462 84.2239C67.3462 76.9745 70.298 73.4638 73.1754 70.9937C73.7181 70.5354 74.3416 70.0586 75.0023 69.5536C78.2137 67.0979 82.212 64.0415 82.212 59.0746C82.212 54.2019 78.2275 51.0536 72.061 51.0536C65.601 51.0536 63.5549 54.0586 62.0604 56.2525C61.039 57.7529 60.5732 58.3618 59.2922 58.3618C57.627 58.3618 55.1491 57.3381 55.1491 54.5192C55.1491 52.6886 56.1972 49.8697 59.1402 47.4487C61.4013 45.589 65.5274 43.3709 72.3489 43.3709C83.3717 43.3709 91.0691 49.165 91.0691 57.4606C91.0691 61.2878 89.4072 65.1247 86.1286 68.8658C85.5561 69.5182 85.624 70.508 86.2782 71.0774Z" fill="white"/>
                        <path d="M135 72.6029C135 106.973 107.022 134.843 72.5 134.843C37.9783 134.843 10 106.973 10 72.6029C10 38.2328 37.9783 10.3633 72.5 10.3633C107.022 10.3633 135 38.2328 135 72.6029Z" stroke="white" stroke-width="2" fill="none"/>
                    </svg>