<svg width="33" height="37" viewBox="0 0 33 37" fill="none" xmlns="http://www.w3.org/2000/svg">
                <path d="M29.4608 28.0579V26.392C29.4608 23.417 27.3089 21.1733 24.4556 21.1733C21.4887 21.1733 19.1648 23.4175 19.1648 26.2819V32.2283C19.1648 34.0285 17.8259 35.2381 15.8328 35.2381C13.9186 35.2381 12.3008 33.611 12.3008 31.6852V25.9925C12.7436 25.7648 13.0863 25.371 13.2545 24.8878C13.8049 24.8561 14.3652 24.8116 14.9465 24.7517C16.9932 24.5407 18.9902 21.9243 19.6697 19.6135C21.0159 14.8855 22.0477 10.6476 22.8267 6.64194C23.0249 5.51344 22.7233 4.32724 21.9777 3.30269C21.2656 2.32351 20.1974 1.57294 18.9838 1.15757C18.6779 0.476155 18.0112 0 17.2343 0C16.17 0 15.3038 0.889321 15.3038 1.98214C15.3038 3.07496 16.17 3.96429 17.2343 3.96429C17.9353 3.96429 18.5445 3.5749 18.8825 2.9992C19.5805 3.3137 20.1837 3.77973 20.6032 4.35675C21.061 4.98575 21.251 5.68655 21.1412 6.31246C20.3746 10.2512 19.3544 14.4406 18.0245 19.1118C17.4081 21.2085 15.8006 22.8929 14.7749 22.9986C14.182 23.0594 13.6114 23.1047 13.0512 23.1351C12.7058 22.5991 12.1142 22.244 11.4428 22.244C10.7715 22.244 10.1799 22.5991 9.8341 23.1347C9.27382 23.1043 8.70326 23.0589 8.11038 22.9977C7.08465 22.8915 5.47719 21.2067 4.86329 19.1184C3.53082 14.4362 2.51024 10.2468 1.74662 6.32832C1.63379 5.68611 1.82384 4.98575 2.28158 4.35675C2.70157 3.77973 3.30474 3.3137 4.00315 2.99876C4.3412 3.5749 4.95038 3.96429 5.65136 3.96429C6.71571 3.96429 7.58185 3.07496 7.58185 1.98214C7.58185 0.889321 6.71571 0 5.65136 0C4.87445 0 4.20778 0.476155 3.90148 1.15713C2.68741 1.5725 1.61921 2.32351 0.906641 3.30269C0.161472 4.32724 -0.140114 5.513 0.0606573 6.6578C0.837144 10.6437 1.86888 14.881 3.21808 19.6206C3.89504 21.9234 5.89203 24.5394 7.93792 24.7508C8.51922 24.8111 9.07992 24.8556 9.63032 24.8873C9.79849 25.3705 10.1413 25.7643 10.584 25.9921V31.6848C10.5848 34.6157 12.9392 37 15.8328 37C18.7577 37 20.8808 34.9932 20.8808 32.2283V26.2819C20.8808 24.4055 22.4509 22.9352 24.4556 22.9352C26.6148 22.9352 27.7448 24.6742 27.7448 26.392V28.0579C25.7298 28.4689 24.2055 30.2968 24.2055 32.4851C24.2055 34.9747 26.1781 37 28.6028 37C31.0275 37 33 34.9747 33 32.4851C33 30.2973 31.4758 28.4689 29.4608 28.0579ZM28.6028 35.2381C27.1244 35.2381 25.9215 34.003 25.9215 32.4851C25.9215 30.9672 27.1244 29.7321 28.6028 29.7321C30.0811 29.7321 31.284 30.9672 31.284 32.4851C31.284 34.003 30.0811 35.2381 28.6028 35.2381Z" fill="#3BAB64"/>
            </svg>